<svg xmlns="http://www.w3.org/2000/svg" viewBox="0 0 24 24" role="img" aria-labelledby="igTitle" width="24" height="24" fill="currentColor">
  <title id="igTitle">Instagram</title>
  <path d="M7.75 2h8.5A5.76 5.76 0 0 1 22 7.75v8.5A5.76 5.76 0 0 1 16.25 22h-8.5A5.76 5.76 0 0 1 2 16.25v-8.5A5.76 5.76 0 0 1 7.75 2zm0 1.5A4.26 4.26 0 0 0 3.5 7.75v8.5A4.26 4.26 0 0 0 7.75 20.5h8.5A4.26 4.26 0 0 0 20.5 16.25v-8.5A4.26 4.26 0 0 0 16.25 3.5h-8.5zM12 7a5 5 0 1 1 0 10 5 5 0 0 1 0-10zm0 1.5a3.5 3.5 0 1 0 0 7 3.5 3.5 0 0 0 0-7zM17.6 6.1a.9.9 0 1 1 0 1.8.9.9 0 0 1 0-1.8z"></path>
</svg>
